<?xml version="1.0" encoding="utf-8"?>
<!-- Generator: Adobe Illustrator 24.0.1, SVG Export Plug-In . SVG Version: 6.00 Build 0)  -->
<svg version="1.1" id="Capa_1" xmlns="http://www.w3.org/2000/svg" xmlns:xlink="http://www.w3.org/1999/xlink" x="0px" y="0px"
	 viewBox="0 0 533.8 344.3" style="enable-background:new 0 0 533.8 344.3;" xml:space="preserve">
<style type="text/css">
	.st0{fill:url(#SVGID_1_);}
	.st1{fill:#FCCA00;}
	.st2{fill:url(#SVGID_2_);}
	.st3{fill:url(#SVGID_3_);}
	.st4{fill:#054993;}
	.st5{fill:#20438B;}
	.st6{fill-rule:evenodd;clip-rule:evenodd;fill:#20438B;}
</style>
<g>
	
		<linearGradient id="SVGID_1_" gradientUnits="userSpaceOnUse" x1="1869.577" y1="1902.6566" x2="2030.6635" y2="1688.8846" gradientTransform="matrix(1 0 0 -1 -1692 1916.13)">
		<stop  offset="0" style="stop-color:#BBBBBA"/>
		<stop  offset="0.31" style="stop-color:#E3E4E4"/>
		<stop  offset="0.45" style="stop-color:#F8F8F8"/>
		<stop  offset="0.66" style="stop-color:#E3E4E4"/>
		<stop  offset="1" style="stop-color:#D1D1D1"/>
	</linearGradient>
	<path class="st0" d="M173.5,182.4v-122h21.3V0.5l51.8,1.2L258,12.6l10.7-11.1H321v59h21.6v122c0.1,11.2-2.1,22.3-6.6,32.6
		c-4.2,10-10.3,19.1-18,26.8c-7.9,7.7-17.1,13.9-27.1,18.3c-10.4,4.3-21.6,6.5-32.9,6.4c-11.3-0.1-22.4-2.4-32.8-6.8
		c-9.9-4.4-19.1-10.5-26.9-18c-7.8-7.6-13.9-16.7-18-26.8C175.8,204.7,173.4,193.6,173.5,182.4z"/>
	<rect x="222.2" y="218.3" class="st1" width="73.2" height="31.3"/>
	<rect x="216.4" y="71.5" class="st1" width="79.4" height="45.5"/>
	
		<linearGradient id="SVGID_2_" gradientUnits="userSpaceOnUse" x1="1912.3947" y1="1788.3132" x2="1984.7882" y2="1735.7179" gradientTransform="matrix(1 0 0 -1 -1692 1916.13)">
		<stop  offset="0" style="stop-color:#E10D19"/>
		<stop  offset="0.52" style="stop-color:#F19C76"/>
		<stop  offset="1" style="stop-color:#E10D19"/>
	</linearGradient>
	<path class="st2" d="M224.3,171v-48.6h67.3V171c0.1,4.5-0.8,8.9-2.6,13c-1.7,4-4.1,7.6-7.1,10.7c-3.1,3.1-6.8,5.5-10.8,7.3
		c-8.4,3.5-17.8,3.4-26.1-0.1c-4-1.8-7.6-4.2-10.7-7.1c-3.1-3-5.5-6.7-7.2-10.7C225.3,179.9,224.3,175.5,224.3,171z"/>
	
		<linearGradient id="SVGID_3_" gradientUnits="userSpaceOnUse" x1="158.9376" y1="298.5903" x2="357.6426" y2="148.8465" gradientTransform="matrix(1 0 0 -1 0 346)">
		<stop  offset="0" style="stop-color:#00A4DF"/>
		<stop  offset="0.34" style="stop-color:#054993"/>
		<stop  offset="0.85" style="stop-color:#054993"/>
		<stop  offset="1" style="stop-color:#00A4DF"/>
	</linearGradient>
	<path class="st3" d="M285.5,92.7l2.3,22.7h1.5l2.6-22.7v-3.2h-6.4V92.7z M283.8,82.5c0.2,0.8,0.4,1.3,0.4,1.3
		c0.5,2.2,2.4,3.7,4.6,3.7c2.7,0,4.9-2.2,4.9-4.9c0-1.2-0.4-2.3-1.2-3.2c0.1,0.4,0,0.9-0.1,1.3c-0.6,1.6-1.7,1.3-2,1l0.5-0.8
		c0.8-1.4-0.6-3.3-0.9-3.6c-1.7-1.5-1.4-2.5-1.4-3.8c-1.4,1.4-2.4,3.1-3.1,5c-0.5,1.9,0,4,2,5.8C285.6,84,284.3,83.2,283.8,82.5z
		 M263.7,82.5l0.4,1.3c0.5,2.2,2.4,3.7,4.6,3.7c2.7,0,4.9-2.2,4.9-4.9c0-1.2-0.4-2.3-1.2-3.2c0.1,0.4,0,0.9-0.1,1.3
		c-0.6,1.6-1.7,1.3-2,1l0.5-0.8c0.8-1.4-0.6-3.3-0.9-3.6c-1.8-1.5-1.4-2.5-1.4-3.8c-1.4,1.4-2.4,3.1-3.1,5c-0.5,1.9,0,4,2,5.8
		C265.5,84,264.2,83.2,263.7,82.5z M265.4,92.7l2.3,22.7h1.5l2.6-22.7v-3.2h-6.4L265.4,92.7z M245.3,92.7l2.3,22.7h1.5l2.6-22.7
		v-3.2h-6.4L245.3,92.7z M243.6,82.5c0.2,0.8,0.4,1.3,0.4,1.3c0.5,2.2,2.4,3.7,4.6,3.7c2.7,0,4.9-2.2,4.9-4.9c0-1.2-0.4-2.3-1.2-3.2
		c0.1,0.4,0,0.9-0.1,1.3c-0.6,1.6-1.7,1.3-2,1l0.5-0.8c0.8-1.4-0.6-3.3-0.9-3.6c-1.7-1.5-1.4-2.5-1.4-3.8c-1.4,1.4-2.4,3.1-3.1,5
		c-0.5,2.2,0.3,4.5,2.1,5.8C245.4,84,244.1,83.2,243.6,82.5L243.6,82.5z M223.5,82.5c0.2,0.8,0.4,1.3,0.4,1.3
		c0.5,2.2,2.4,3.7,4.6,3.7c2.7,0,4.9-2.2,4.9-4.9c0-1.2-0.4-2.3-1.2-3.2c0.1,0.4,0,0.9-0.1,1.3c-0.6,1.6-1.7,1.3-2,1l0.5-0.8
		c0.8-1.4-0.6-3.3-0.9-3.6c-1.7-1.5-1.4-2.5-1.4-3.8c-1.4,1.4-2.4,3.1-3.1,5c-0.5,1.9,0,4,2.1,5.8C225.3,84,224,83.2,223.5,82.5
		L223.5,82.5z M225.2,92.7l2.3,22.7h1.5l2.6-22.7v-3.2h-6.4V92.7z M264.5,4.2c3.2-2.8,7.3-4.3,11.5-4.2h45.4c0.8,0,1,0.3,1.5,0.8
		c0.5,0.3,0.5,0.5,0.8,0.8v57.8H343l1.3,0.3c0.4,0,0.8,0.2,1,0.5c0.7,0.7,1,1.7,1,2.6v118.7c-0.1,11.9-2.3,23.7-6.7,34.8
		c-4.5,10.5-10.8,20.2-18.7,28.5c-8,8.1-17.5,14.7-28,19.3c-10.8,4.8-22.5,7.3-34.4,7.1c-11.7,0-23.2-2.4-33.9-7.1
		c-10.5-4.4-19.9-11-27.7-19.3c-8.2-8.1-14.6-17.8-19-28.5c-4.3-11.1-6.5-22.9-6.7-34.8V62.8c0-0.9,0.3-1.8,0.8-2.6
		c0.5-0.5,1.3-0.8,2-0.8h19.5V1.6c0-0.3,0.2-0.5,0.5-0.8c0.4-0.5,0.9-0.8,1.5-0.8h45.9c4.3,0,8.5,1.5,11.8,4.2
		c2.2,1.7,4,3.9,5.4,6.3C260.3,8.1,262.2,6,264.5,4.2z M261.9,15.8h-5.6c-1-3.1-2.9-5.8-5.4-7.9c-2.6-2.1-5.9-3.2-9.2-3.2H198v54.3
		h43.6c3.1-0.1,6.2,0.6,9,2.1c1.7,1,3.4,2.1,4.9,3.4c1.5,2.4,2.8,4,3.4,5c1-1.8,2.1-3.4,3.3-5c1.4-1.4,3.1-2.5,4.8-3.4
		c2.8-1.5,5.9-2.2,9-2.1h43.1V4.8H276c-3.3-0.1-6.5,1-9,3.2C264.3,9.8,262.5,12.6,261.9,15.8L261.9,15.8z M304.2,115.6
		c1.1,0.2,2.2,0.3,3.3,0.3c2.9,0,5.7-0.7,8.2-2.1c5.3-2.9,11.3-4.5,17.5-4.5c2.9,0,5.7,0.3,8.5,1.1V63.8
		C341.7,63.8,303.7,115.3,304.2,115.6L304.2,115.6z M295.2,150.7c1.5,1.5,3.2,2.7,5.1,3.7l0.5,0.3c1.1,0.5,2.2,0.8,3.3,1.1
		c1.1,0.2,2.2,0.3,3.3,0.3c2.9,0,5.8-0.8,8.2-2.4c5.4-2.8,11.4-4.3,17.5-4.2c2.9,0,5.7,0.3,8.5,1.1v-19c-0.5-0.3-1-0.6-1.5-0.8
		c-2.1-1.1-4.5-1.7-6.9-1.6c-3-0.1-5.9,0.6-8.5,2.1c-6.2,2.9-11.8,4.8-17.2,4.8c-4.9,0-9.7-1.2-14.1-3.4v16.4L295.2,150.7z
		 M176,63.8V110c2.6-0.6,5.3-0.8,7.9-0.8c6.2-0.1,12.3,1.5,17.7,4.5c2.5,1.3,5.2,2.1,8,2.1c2.2,0,4.4-0.4,6.4-1.3L176,63.8z
		 M176,150.1c8.7-1.8,17.7-0.6,25.6,3.4c2.4,1.6,5.2,2.4,8,2.4c2.4-0.1,4.7-0.6,6.9-1.6c2-1.1,3.9-2.3,5.7-3.7l1.5-1.6v-16.4
		c-4.4,2-9.2,3.1-14.1,3.2c-5.9,0-11.3-1.9-16.7-4.8c-2.8-1.5-5.9-2.2-9-2.1c-2.3-0.1-4.6,0.4-6.7,1.6l-1.3,1L176,150.1z
		 M227.8,172.8c0.5,3.2,1.4,6.3,2.6,9.2c1.4,3.8,3.6,7.3,6.4,10.3c1.5,1.1,2.8,2.4,4.6,3.4c0.4,0.3,0.8,0.6,1.3,0.8
		c1.2,1,2.6,1.8,4.1,2.4c3.8,1.4,7.8,2.2,11.8,2.4c4.1-0.1,8.2-0.9,12-2.3c1.5-0.6,2.9-1.4,4.1-2.4c1.3-0.8,2.6-1.7,3.9-2.6
		c0.5-0.5,1.3-1.1,1.8-1.6c2.9-2.9,5.2-6.4,6.7-10.3c0.2-0.4,0.3-0.6,0.5-1c1.2-2.5,1.9-5.2,2.1-7.9V129h-62.1v40.4
		C227.5,170.5,227.8,171.8,227.8,172.8L227.8,172.8z M226.3,182.3c-1.5-3.7-2.4-7.6-2.6-11.6c-4.4,2.1-9,5-14.1,5
		c-5.9,0-11.7-1.6-16.7-4.7c-2.3-1.3-5.1-1.9-9-1.9c-2.3-0.1-4.6,0.4-6.7,1.6l-1.3,0.8v10.3c0,2.1,0,4.2,0.2,6.3
		c2.5-0.5,5.1-0.8,7.7-0.8c6.2-0.1,12.3,1.4,17.7,4.5c2.5,1.3,5.2,2,8,2.1c4.7,0.1,9.3-1.8,12.6-5.3l2.1-2.6
		c0.8-0.9,1.4-1.8,1.8-2.9L226.3,182.3z M192.9,209.5c-2.8-1.4-5.9-2.2-9-2.4c-1.3-0.1-2.6,0.1-3.8,0.5c0.6,2.5,1.5,4.8,2.6,7.1
		c4,10.2,10,19.5,17.7,27.2c0.5,0.6,1.2,1.1,1.8,1.6l26.2-35.1c-1.3,0.8-2.6,1.6-4.1,2.4c-4.6,1.9-9.6,2.9-14.6,2.9
		C203.7,213.8,198,212.3,192.9,209.5L192.9,209.5z M237.6,241.4l9,7.1l-3.3-11.4l9-6.9h-11l-3.6-11.1l-3.6,11.1h-11.4l9.2,6.9
		l-3.6,11.4L237.6,241.4z M341.5,188.4c0.2-2.2,0.3-4.4,0.3-6.6v-10c-0.5-0.3-1-0.7-1.5-1.1c-2.1-1.2-4.5-1.7-6.9-1.6
		c-3.6,0-6.4,0.5-8.5,1.9c-6.2,3.2-11.8,4.8-17.2,4.8c-4.9,0-9.7-1-14.1-3.2c0,4.2-0.8,6.3-2,10c0.2,1.8,2,4,3.8,6.3l0,0
		c1.7,1.4,3.5,2.6,5.4,3.7c2.2,0.9,4.5,1.3,6.9,1.3c2.9,0,5.7-0.8,8.2-2.1c5.4-2.8,11.4-4.3,17.5-4.5
		C336,187.3,338.8,187.7,341.5,188.4L341.5,188.4z M324.8,209.6c-5.4,2.7-11.2,4.1-17.2,4.2c-4.9,0-9.8-1-14.4-2.9
		c-1.3-0.8-2.6-1.3-3.9-2.1l26.4,35.1l1.8-1.9c7.6-7.9,13.6-17.1,17.7-27.2c1.1-2.8,1.8-4.6,2.5-6.9c-1.5-0.5-3-0.8-4.6-0.8
		C330.3,207.2,327.4,208,324.8,209.6L324.8,209.6z M288.7,248.6l-3.3-11.4l9-6.9h-11l-3.6-11.1l-3.6,11.1h-11.4l9.2,6.9l-3.6,11.4
		l9.2-7.1L288.7,248.6z"/>
	<path class="st4" d="M278.3,22.4c-4.2,2.8-5.4,8.5-2.6,12.7c0.7,1,1.5,1.9,2.6,2.6c1.6,1.1,3.3,2,5.1,2.6v10.8h-11.8v-3.7h10.2
		v-3.2c-2.3-0.7-4.4-1.8-6.4-3.2c-3.6-3.2-5.4-6.8-5.4-11.1s1.8-7.9,5.4-11.1c3.5-2.9,8-4.5,12.6-4.5c4.6-0.1,9.1,1.5,12.6,4.5
		c3.8,3.2,5.6,6.9,5.6,11.1c0.2,4.2-1.5,7.9-5.6,11.1c-1.8,1.5-3.9,2.5-6.2,3.2v3.2h10.3v3.7h-12.1V40.1c2-0.5,3.9-1.3,5.7-2.4
		c2.4-1.8,3.8-4.7,3.6-7.7c0-2.9-1.3-5.3-3.6-7.7c-2.9-2.3-6.5-3.5-10.2-3.4C284.5,19,281.1,20.2,278.3,22.4z"/>
	<path class="st4" d="M245.2,51.7l-6.4-12.9h-18.5l-6.4,12.9h-4.6l19.8-38.8h1l19.5,38.8H245.2z M236.8,34.8l-6.9-14.2l-7.4,14.2
		H236.8z"/>
	<path class="st1" d="M256.5,155.7v-10.3h4.4v10.3c0.8,0,1.6,0.3,2.3,0.8l5.1-9c1.3,0.5,2.6,1.4,3.6,2.4l-4.9,8.7
		c0.3,0.3,0.6,0.6,1,0.8c0.3,0.3,0.6,0.7,0.8,1.1l8.5-5.3c0.8,1.3,1.4,2.6,2,4l-8.5,5c0.2,0.8,0.2,1.6,0.5,2.4h10v4.2h-10
		c-0.3,0.8-0.3,1.6-0.5,2.4l8.5,5.3c-0.6,1.4-1.2,2.7-2,4l-8.5-5.3c-0.2,0.4-0.5,0.8-0.8,1.1c-0.4,0.2-0.7,0.5-1,0.8l4.9,8.7
		c-1.1,0.9-2.3,1.7-3.6,2.4l-5.1-8.7c-0.7,0.3-1.5,0.5-2.3,0.5v10l-2.3,0.3l-2.1-0.3v-10c-0.8-0.1-1.6-0.2-2.3-0.5l-5.1,8.7
		c-1.3-0.6-2.5-1.4-3.6-2.4l4.9-8.4c-0.2-0.4-0.6-0.8-1-1c-0.3-0.2-0.4-0.5-0.5-0.8l-8.7,4.8c-0.8-1.1-1.5-2.4-2.1-3.7l8.7-5
		c-0.4-0.8-0.7-1.7-0.8-2.6h-10v-4.4h10c0.2-0.8,0.2-1.6,0.5-2.4l-8.5-5c0.6-1.4,1.3-2.7,2.1-4l8.5,5.3c0.2-0.4,0.5-0.8,0.8-1.1
		c0.5-0.3,0.8-0.8,1.3-1.1l-5.1-8.4c1-1,2.2-1.8,3.6-2.4l5.1,9C254.9,156,255.7,155.7,256.5,155.7z"/>
	<path class="st5" d="M23,314.9h-5.8l-0.3,20.9c-0.2,1-0.8,1.8-1.6,2.5c-1.1,0.8-2.4,1.1-3.8,1c-1.3,0.1-2.6-0.3-3.7-1
		c-0.9-0.7-1.5-1.7-1.8-2.9c-0.2-1.6-0.3-3.3-0.3-4.9v-15.6H0v15.4c-0.1,2.5,0.1,4.9,0.6,7.4c0.2,1.2,0.8,2.3,1.6,3.2
		c0.9,1,2.1,1.9,3.3,2.5c2,0.8,4.2,1.1,6.3,1c1.9,0,3.8-0.3,5.6-0.9c1.3-0.5,2.4-1.3,3.4-2.3c0.8-1.1,1.4-2.3,1.7-3.6
		c0.4-2.4,0.6-4.9,0.5-7.4L23,314.9z"/>
	<path class="st5" d="M52.2,314.9h-5.6v19.4l-11.8-19.4h-5.7v29h5.4v-19l11.6,19h6L52.2,314.9z"/>
	<path class="st5" d="M58.2,314.9v29H64v-29H58.2z"/>
	<path class="st5" d="M87.3,314.9l-7,21.3l-7.4-21.3h-6.3l10.3,29h6.3l10.3-29H87.3z"/>
	<path class="st5" d="M102.3,338.9V331h14.5v-4.9h-14.5v-6.3h15.5v-4.9H96.3v29h22.1v-4.9H102.3z"/>
	<path class="st5" d="M145.7,318.4c-0.8-1.3-2-2.2-3.4-2.7c-2.2-0.6-4.4-0.9-6.7-0.8h-12.3v29h5.8v-12.1h1.2c1,0,2,0.1,3,0.4
		c0.7,0.1,1.4,0.6,1.8,1.2c0.7,0.8,1.7,2.2,3.1,4.3l4.1,6.3h7l-3.5-5.7c-1-1.6-2.1-3.2-3.4-4.6c-0.8-1-1.9-1.9-3.1-2.5
		c2.5-0.4,4.4-1.2,5.7-2.7c1.3-1.5,2-3.4,1.9-5.3C147.1,321.4,146.6,319.7,145.7,318.4z M138,319.9c0.8,0.1,1.6,0.4,2.2,1
		c0.5,0.7,0.8,1.6,0.8,2.5c0,0.7-0.1,1.4-0.5,2.1c-0.4,0.6-1,1-1.7,1.3c-1.7,0.4-3.4,0.5-5.2,0.4h-4.4v-7.4L138,319.9z"/>
	<path class="st5" d="M157,315.4c-1.5,0.5-2.8,1.5-3.6,2.8c-0.9,1.2-1.3,2.7-1.3,4.3c0,2.2,1,4.4,2.7,5.8c1.9,1.4,4.1,2.4,6.5,2.9
		l4.7,1.3c0.8,0.2,1.6,0.6,2.2,1.2c0.4,0.5,0.6,1.2,0.5,1.8c0,1.1-0.5,2.1-1.4,2.7c-2.5,1.8-5.9,1.7-8.4-0.1
		c-1.2-1.1-1.9-2.6-2.1-4.1l-5.7,0.5c0.2,2.8,1.4,5.4,3.5,7.4c1.9,1.7,4.7,2.6,8.4,2.6c2.1,0.1,4.2-0.3,6.2-1.2
		c1.6-0.6,3-1.7,3.9-3.1c0.9-1.4,1.4-3,1.4-4.7c0-1.6-0.3-3.2-1-4.6c-0.8-1.3-1.9-2.3-3.2-3c-2-0.9-4.2-1.6-6.3-2
		c-2.7-0.7-4.5-1.3-5.3-1.9c-0.6-0.4-0.9-1.1-0.9-1.8c0-0.7,0.4-1.3,0.9-1.7c1.2-0.8,2.6-1.2,4-1.2c1.3-0.1,2.6,0.3,3.6,1
		c1,0.8,1.6,2,1.7,3.2l5.8-0.2c0-2.4-1-4.7-2.9-6.3c-1.9-1.7-4.6-2.5-8.3-2.5C160.7,314.3,158.8,314.6,157,315.4z"/>
	<path class="st5" d="M185,314.9h-5.8v29h5.8V314.9z"/>
	<path class="st5" d="M211,318.1c-1.1-1.3-2.6-2.2-4.3-2.7c-1.8-0.4-3.7-0.6-5.6-0.5h-10.6v29h11c1.7,0,3.5-0.2,5.2-0.6
		c1.5-0.5,2.8-1.3,4-2.3c1.5-1.4,2.5-3.1,3.1-5c0.7-2,1-4.1,0.9-6.2c0.1-2.3-0.2-4.6-0.9-6.9C213.3,321,212.3,319.4,211,318.1z
		 M199.1,319.8c1.6-0.1,3.1,0,4.7,0.2c1,0.2,2,0.6,2.7,1.3c0.8,0.8,1.4,1.8,1.7,2.8c0.5,1.7,0.7,3.4,0.6,5.2c0,1.8-0.2,3.6-0.6,5.3
		c-0.2,1-0.8,2-1.6,2.7c-0.6,0.7-1.4,1.1-2.3,1.3c-1.2,0.2-2.3,0.3-3.5,0.3h-4.4v-19.1H199.1z"/>
	<path class="st5" d="M234.3,314.9h-6.2l-11.2,29h6.2l2.3-6.6H237l2.4,6.6h6.4L234.3,314.9z M235.1,332.3h-7.9l3.9-10.7L235.1,332.3
		z"/>
	<path class="st5" d="M265.1,315.4c-1.8-0.4-3.6-0.5-5.4-0.5h-10.7v29h11c1.7,0,3.5-0.2,5.2-0.6c1.6-0.4,3-1.2,4.1-2.3
		c1.4-1.4,2.5-3.1,3.1-5c0.6-2,0.8-4.1,0.8-6.2c0.1-2.3-0.2-4.6-0.9-6.9c-0.6-1.7-1.5-3.3-2.7-4.6
		C268.3,316.9,266.8,315.9,265.1,315.4z M262.2,320c1,0.2,1.9,0.7,2.7,1.3c0.7,0.8,1.2,1.8,1.6,2.8c0.5,1.7,0.7,3.4,0.6,5.2
		c0,1.8-0.2,3.6-0.6,5.3c-0.3,1-0.8,1.9-1.4,2.7c-0.7,0.7-1.5,1.1-2.5,1.3c-1.2,0.2-2.3,0.3-3.5,0.3h-4.3v-19.1h2.6
		C259.1,319.7,260.7,319.7,262.2,320z"/>
	<path class="st5" d="M312.5,322.7c-0.6-1.7-1.5-3.3-2.7-4.6c-1.2-1.3-2.7-2.3-4.4-2.7c-1.8-0.4-3.6-0.6-5.4-0.5h-10.6v29h10.9
		c1.7,0,3.5-0.2,5.2-0.6c1.6-0.4,3-1.2,4.1-2.3c1.4-1.4,2.5-3.1,3.1-5c0.6-2,0.9-4.1,0.9-6.2C313.6,327.3,313.3,325,312.5,322.7z
		 M295.2,319.8h2.6c1.6-0.1,3.2,0,4.8,0.2c1,0.2,1.9,0.7,2.7,1.3c0.7,0.8,1.3,1.8,1.7,2.8c0.4,1.7,0.6,3.4,0.5,5.2
		c0.1,1.8-0.1,3.6-0.5,5.3c-0.3,1-0.9,1.9-1.5,2.7c-0.7,0.6-1.5,1.1-2.3,1.3c-1.2,0.2-2.4,0.3-3.6,0.3h-4.3V319.8z"/>
	<path class="st5" d="M478.1,314.9h-11.5v29l16.8-0.3c1.4-0.1,2.8-0.6,4-1.4c1-0.8,1.9-1.8,2.4-3c0.6-1.2,0.9-2.4,0.9-3.8
		c0.1-1.6-0.4-3.2-1.4-4.4c-1-1.3-2.4-2.2-4-2.6c1.2-0.6,2.3-1.5,3-2.6c0.7-1.1,1-2.4,1-3.7c0-1.2-0.3-2.3-0.9-3.4
		c-0.5-1-1.3-1.8-2.2-2.5c-0.9-0.5-2-0.9-3-1.2C481.5,314.9,479.8,314.9,478.1,314.9z M476.2,326.4h-3.9v-6.7l8.4,0.1
		c0.8,0,1.6,0.4,2.1,1c0.6,0.6,0.8,1.4,0.8,2.2c0,0.8-0.3,1.6-0.8,2.2c-0.7,0.6-1.5,1-2.5,1C479.7,326.2,478.3,326.4,476.2,326.4z
		 M472.4,331.2h4.8c1.7-0.1,3.5,0,5.2,0.4c0.7,0.3,1.3,0.8,1.8,1.3c0.4,0.7,0.6,1.4,0.6,2.2c0.1,0.9-0.2,1.8-0.9,2.5
		c-0.5,0.7-1.2,1.1-2.1,1.2l-9.4,0.3V331.2z"/>
	<path class="st5" d="M434.5,314.4c-2.2,0-4.3,0.3-6.3,1.2c-1.4,0.6-2.6,1.5-3.6,2.6c-1.2,1.1-2.1,2.5-2.7,4c-1,2.3-1.5,4.8-1.4,7.4
		c0,4.7,1.3,8.3,3.9,11c2.7,2.6,6.4,4,10.2,3.9c3.8,0.1,7.5-1.3,10.2-4c2.6-2.6,3.8-6.2,3.8-11s-1.3-8.4-3.8-11
		C442,315.6,438.3,314.2,434.5,314.4z M434.5,319.4c2.2-0.1,4.4,0.8,5.8,2.5c1.4,1.5,2.2,4,2.2,7.4s-0.8,5.9-2.2,7.5
		c-1.5,1.7-3.6,2.6-5.8,2.6c-2.2,0.1-4.3-0.9-5.7-2.6c-1.5-1.7-2.3-4.1-2.3-7.4s0.8-5.8,2.2-7.5
		C430.2,320.2,432.3,319.3,434.5,319.4L434.5,319.4z"/>
	<path class="st5" d="M452.3,336.1h11v-5.6h-11V336.1z"/>
	<path class="st5" d="M519.7,314.4c-2.1,0-4.2,0.4-6.2,1.2c-1.4,0.6-2.7,1.4-3.7,2.6c-1.2,1.1-2.2,2.5-2.7,4
		c-0.9,2.3-1.4,4.8-1.3,7.4c0,4.7,1.3,8.3,3.8,11c2.7,2.6,6.4,4,10.2,3.9c3.8,0.2,7.5-1.3,10.2-4c2.6-2.7,3.9-6.3,3.9-11
		s-1.3-8.4-3.9-11C527.3,315.6,524,314.4,519.7,314.4z M513.9,321.9c1.5-1.6,3.6-2.5,5.8-2.5c2.2-0.1,4.4,0.8,5.8,2.5
		c1.5,1.5,2.2,4,2.2,7.4s-0.8,5.8-2.2,7.5c-1.5,1.7-3.6,2.6-5.8,2.6c-2.2,0.1-4.3-0.9-5.7-2.6c-1.5-1.7-2.3-4.1-2.3-7.4
		S512.5,323.4,513.9,321.9z"/>
	<path class="st5" d="M501.4,314.9h-5.8v29h5.8V314.9z"/>
	<path class="st5" d="M340,319.8v-4.9h-21.5v29h22v-4.9h-16.2V331h14.5v-4.9h-14.5v-6.3H340z"/>
	<path class="st5" d="M365.8,343.8v-4.9h-14.4v-23.8h-5.9v28.7H365.8z"/>
	<path class="st5" d="M416.1,314.9h-5.8v29h5.8L416.1,314.9z"/>
	<path class="st5" d="M404.1,322.1c0-1.2-0.3-2.3-0.9-3.4c-0.6-0.9-1.3-1.8-2.2-2.5c-0.9-0.5-1.9-0.9-3-1.2
		c-1.7-0.2-3.4-0.3-5.2-0.2h-11.5v29l16.8-0.3c2.8-0.3,5.2-1.9,6.5-4.4c0.6-1.2,0.9-2.5,0.9-3.8c0-1.6-0.5-3.1-1.4-4.4
		c-1-1.3-2.4-2.2-4-2.6c1.2-0.6,2.2-1.5,3-2.6C403.8,324.7,404.1,323.4,404.1,322.1z M397.6,320.8c0.6,0.6,0.8,1.4,0.8,2.2
		c0.1,0.8-0.3,1.6-0.9,2.2c-0.6,0.6-1.5,0.9-2.3,1l-8,0.1v-6.7l8.3,0.1C396.3,319.8,397.1,320.2,397.6,320.8z M387.1,331.2h4.7
		c1.7-0.1,3.5,0,5.1,0.4c0.8,0.2,1.5,0.7,2,1.3c0.4,0.7,0.5,1.4,0.5,2.2c0.1,0.9-0.2,1.8-0.8,2.5c-0.5,0.6-1.3,1-2.1,1.2l-9.5,0.3
		L387.1,331.2z"/>
	<polygon class="st6" points="409.4,313.3 412,307.6 418,307.6 412.8,313.3 	"/>
	<rect x="495.5" y="314.9" class="st5" width="5.8" height="29"/>
	<polygon class="st6" points="494.7,313.3 497.3,307.6 503.3,307.6 498,313.3 	"/>
</g>
</svg>
